<svg aria-hidden="true" style="position: absolute; width: 0; height: 0; overflow: hidden;" version="1.1" xmlns="http://www.w3.org/2000/svg" xmlns:xlink="http://www.w3.org/1999/xlink">
  <defs>


<symbol id="google" viewBox="0 0 32 32">
<path fill="#ffc107" style="fill: var(--color1, #ffc107)" d="M29.074 13.389h-1.074v-0.055h-12v5.333h7.535c-1.099 3.105-4.053 5.333-7.535 5.333-4.418 0-8-3.582-8-8s3.582-8 8-8c2.039 0 3.895 0.769 5.307 2.026l3.771-3.771c-2.381-2.219-5.567-3.588-9.079-3.588-7.363 0-13.333 5.97-13.333 13.333s5.97 13.333 13.333 13.333c7.363 0 13.333-5.97 13.333-13.333 0-0.894-0.092-1.767-0.259-2.611z"></path>
<path fill="#000" style="fill: var(--color2, #000)" opacity="0.3" d="M29.074 13.389h-1.074v-0.055h-12v5.333h7.535c-1.099 3.105-4.053 5.333-7.535 5.333-4.418 0-8-3.582-8-8s3.582-8 8-8c2.039 0 3.895 0.769 5.307 2.026l3.771-3.771c-2.381-2.219-5.567-3.588-9.079-3.588-7.363 0-13.333 5.97-13.333 13.333s5.97 13.333 13.333 13.333c7.363 0 13.333-5.97 13.333-13.333 0-0.894-0.092-1.767-0.259-2.611z"></path>
<path fill="#fff" style="fill: var(--color3, #fff)" opacity="0.3" d="M29.074 13.389h-1.074v-0.055h-12v5.333h7.535c-1.099 3.105-4.053 5.333-7.535 5.333-4.418 0-8-3.582-8-8s3.582-8 8-8c2.039 0 3.895 0.769 5.307 2.026l3.771-3.771c-2.381-2.219-5.567-3.588-9.079-3.588-7.363 0-13.333 5.97-13.333 13.333s5.97 13.333 13.333 13.333c7.363 0 13.333-5.97 13.333-13.333 0-0.894-0.092-1.767-0.259-2.611z"></path>
<path fill="#ff3d00" style="fill: var(--color4, #ff3d00)" d="M4.204 9.794l4.381 3.213c1.185-2.935 4.056-5.007 7.415-5.007 2.039 0 3.895 0.769 5.307 2.026l3.771-3.771c-2.381-2.219-5.567-3.588-9.079-3.588-5.121 0-9.563 2.891-11.796 7.127z"></path>
<path fill="#000" style="fill: var(--color2, #000)" opacity="0.3" d="M4.204 9.794l4.381 3.213c1.185-2.935 4.056-5.007 7.415-5.007 2.039 0 3.895 0.769 5.307 2.026l3.771-3.771c-2.381-2.219-5.567-3.588-9.079-3.588-5.121 0-9.563 2.891-11.796 7.127z"></path>
<path fill="#fff" style="fill: var(--color3, #fff)" opacity="0.3" d="M4.204 9.794l4.381 3.213c1.185-2.935 4.056-5.007 7.415-5.007 2.039 0 3.895 0.769 5.307 2.026l3.771-3.771c-2.381-2.219-5.567-3.588-9.079-3.588-5.121 0-9.563 2.891-11.796 7.127z"></path>
<path fill="#4caf50" style="fill: var(--color5, #4caf50)" d="M16 29.333c3.444 0 6.573-1.318 8.939-3.461l-4.127-3.492c-1.384 1.052-3.074 1.621-4.813 1.62-3.468 0-6.413-2.211-7.522-5.297l-4.348 3.35c2.207 4.318 6.688 7.281 11.87 7.281z"></path>
<path fill="#000" style="fill: var(--color2, #000)" opacity="0.3" d="M16 29.333c3.444 0 6.573-1.318 8.939-3.461l-4.127-3.492c-1.384 1.052-3.074 1.621-4.813 1.62-3.468 0-6.413-2.211-7.522-5.297l-4.348 3.35c2.207 4.318 6.688 7.281 11.87 7.281z"></path>
<path fill="#fff" style="fill: var(--color3, #fff)" opacity="0.3" d="M16 29.333c3.444 0 6.573-1.318 8.939-3.461l-4.127-3.492c-1.384 1.052-3.074 1.621-4.813 1.62-3.468 0-6.413-2.211-7.522-5.297l-4.348 3.35c2.207 4.318 6.688 7.281 11.87 7.281z"></path>
<path fill="#1976d2" style="fill: var(--color6, #1976d2)" d="M29.074 13.389h-1.074v-0.055h-12v5.333h7.535c-0.526 1.478-1.473 2.769-2.725 3.714l0.002-0.001 4.127 3.492c-0.292 0.265 4.394-3.205 4.394-9.871 0-0.894-0.092-1.767-0.259-2.611z"></path>
<path fill="#000" style="fill: var(--color2, #000)" opacity="0.3" d="M29.074 13.389h-1.074v-0.055h-12v5.333h7.535c-0.526 1.478-1.473 2.769-2.725 3.714l0.002-0.001 4.127 3.492c-0.292 0.265 4.394-3.205 4.394-9.871 0-0.894-0.092-1.767-0.259-2.611z"></path>
<path fill="#fff" style="fill: var(--color3, #fff)" opacity="0.3" d="M29.074 13.389h-1.074v-0.055h-12v5.333h7.535c-0.526 1.478-1.473 2.769-2.725 3.714l0.002-0.001 4.127 3.492c-0.292 0.265 4.394-3.205 4.394-9.871 0-0.894-0.092-1.767-0.259-2.611z"></path>
</symbol>


<symbol id="linkedin" viewBox="0 0 32 32">
<path fill="#fff" style="fill: var(--color3, #fff)" d="M24.5 0h-17c-4.142 0-7.5 3.358-7.5 7.5v17c0 4.142 3.358 7.5 7.5 7.5h17c4.142 0 7.5-3.358 7.5-7.5v-17c0-4.142-3.358-7.5-7.5-7.5z"></path>
<path d="M24.5 0h-17c-4.142 0-7.5 3.358-7.5 7.5v17c0 4.142 3.358 7.5 7.5 7.5h17c4.142 0 7.5-3.358 7.5-7.5v-17c0-4.142-3.358-7.5-7.5-7.5z"></path>
<path fill="#000" style="fill: var(--color2, #000)" opacity="0.3" d="M24.5 0h-17c-4.142 0-7.5 3.358-7.5 7.5v17c0 4.142 3.358 7.5 7.5 7.5h17c4.142 0 7.5-3.358 7.5-7.5v-17c0-4.142-3.358-7.5-7.5-7.5z"></path>
<path fill="#fff" style="fill: var(--color3, #fff)" opacity="0.3" d="M24.5 0h-17c-4.142 0-7.5 3.358-7.5 7.5v17c0 4.142 3.358 7.5 7.5 7.5h17c4.142 0 7.5-3.358 7.5-7.5v-17c0-4.142-3.358-7.5-7.5-7.5z"></path>
<path fill="#fff" style="fill: var(--color3, #fff)" d="M23.089 27.211h3.659c0.133 0 0.26-0.053 0.354-0.146s0.146-0.221 0.146-0.353l0.002-7.73c0-4.040-0.871-7.146-5.592-7.146-1.795-0.067-3.488 0.858-4.401 2.404-0.004 0.008-0.011 0.013-0.019 0.017s-0.017 0.004-0.025 0.002c-0.008-0.002-0.016-0.007-0.021-0.014s-0.008-0.015-0.008-0.024v-1.51c0-0.133-0.053-0.26-0.146-0.354s-0.221-0.146-0.354-0.146h-3.472c-0.133 0-0.26 0.053-0.354 0.146s-0.146 0.221-0.146 0.354v14.003c0 0.133 0.053 0.26 0.146 0.354s0.221 0.146 0.354 0.146h3.659c0.133 0 0.26-0.053 0.354-0.146s0.146-0.221 0.146-0.354v-6.922c0-1.957 0.371-3.852 2.798-3.852 2.392 0 2.423 2.239 2.423 3.979v6.796c0 0.133 0.053 0.26 0.146 0.354s0.221 0.146 0.354 0.146zM4.75 7.454c0 1.483 1.221 2.703 2.704 2.703s2.703-1.221 2.703-2.704c-0-1.483-1.22-2.703-2.703-2.703s-2.704 1.22-2.704 2.704zM5.62 27.211h3.663c0.133 0 0.26-0.053 0.354-0.146s0.146-0.221 0.146-0.354v-14.003c0-0.133-0.053-0.26-0.146-0.354s-0.221-0.146-0.354-0.146h-3.663c-0.133 0-0.26 0.053-0.354 0.146s-0.146 0.221-0.146 0.354v14.003c0 0.133 0.053 0.26 0.146 0.354s0.221 0.146 0.354 0.146z"></path>
</symbol>



  </defs>
</svg>